<svg width="29px" height="24px" viewBox="-14 -2 29 24" version="1.1" xmlns="http://www.w3.org/2000/svg" xmlns:xlink="http://www.w3.org/1999/xlink">
    <path fill="#f57c00" d="M-14,-2 L-14,17 L10,17 L10,-2 L-14,-2 Z M8,15 L-12,15 L-12,0 L8,0 L8,15 Z M1.401,19 L4,22 L-8,22 L-5.401,19 L1.401,19 Z M-5,3 L1,7.674 L-1.538,8.101 L0,11.196 L-1.571,12 L-3.117,8.843 L-5,10.602 L-5,3 Z" id="Shape" stroke="none" fill-rule="evenodd"></path>
    <polygon id="Path" stroke="none" fill="#FFFFFF" fill-rule="evenodd" points="8 15 -12 15 -12 0 8 0"></polygon>
    <polygon id="Path" stroke="none" fill="#FFFFFF" fill-rule="evenodd" points="13.4285714 18.765 7 18.765 7 10 13.4285714 10"></polygon>
    <path fill="#f57c00" d="M15,8.25 C15,7.56 14.424,7 13.7142857,7 L7.28571429,7 C6.576,7 6,7.56 6,8.25 L6,20.75 C6,21.44 6.576,22 7.28571429,22 L13.7142857,22 C14.424,22 15,21.44 15,20.75 L15,8.25 Z M9.53571429,8.25 L11.4642857,8.25 C11.6417143,8.25 11.7857143,8.39 11.7857143,8.5625 C11.7857143,8.735 11.6417143,8.875 11.4642857,8.875 L9.53571429,8.875 C9.35828571,8.875 9.21428571,8.735 9.21428571,8.5625 C9.21428571,8.39 9.35828571,8.25 9.53571429,8.25 Z M10.5,20.75 C10.1445,20.75 9.85714286,20.47 9.85714286,20.125 C9.85714286,19.78 10.1445,19.5 10.5,19.5 C10.8548571,19.5 11.1422143,19.78 11.1422143,20.125 C11.1422143,20.47 10.8548571,20.75 10.5,20.75 Z M13.7142857,18.875 L7.28571429,18.875 L7.28571429,10.11 L13.7142857,10.11 L13.7142857,18.875 Z" id="Shape" stroke="none" fill-rule="evenodd"></path>
</svg>
